<svg width="144" height="29" viewBox="0 0 144 29" fill="none" xmlns="http://www.w3.org/2000/svg">
<path d="M31.704 24H34.08V11.496L39.12 24H41.136L46.152 11.496V24H48.552V7.2H45.48L40.128 20.592L34.776 7.2H31.704V24ZM51.594 6.84V9.768H54.186V6.84H51.594ZM51.738 24H54.066V11.904H51.738V24ZM57.0114 24H59.3394V17.448C59.3394 15.336 60.6834 13.8 62.5794 13.8C64.2834 13.8 65.4114 15.096 65.4114 17.016V24H67.7394V16.56C67.7394 13.68 65.9634 11.712 63.2274 11.712C61.4274 11.712 59.9874 12.528 59.3394 14.04V11.904H57.0114V24ZM70.5784 6.84V9.768H73.1704V6.84H70.5784ZM70.7224 24H73.0504V11.904H70.7224V24ZM80.1238 24H82.5958L86.5318 11.064L90.4678 24H92.9638L98.0758 7.2H95.5318L91.6198 20.28L87.6118 7.2H85.4518L81.4438 20.28L77.5558 7.2H74.9878L80.1238 24ZM103.318 11.712C100.462 11.712 98.3021 13.488 98.1101 15.864H100.27C100.342 14.64 101.566 13.584 103.246 13.584C105.118 13.584 106.174 14.592 106.174 16.056C106.174 16.488 105.91 16.776 105.358 16.776H102.838C99.9821 16.776 98.1341 18.216 98.1341 20.544C98.1341 22.704 99.7661 24.192 102.238 24.192C104.062 24.192 105.598 23.328 106.174 22.032V24H108.502V16.2C108.502 13.512 106.438 11.712 103.318 11.712ZM102.694 22.344C101.35 22.344 100.438 21.6 100.438 20.496C100.438 19.224 101.47 18.408 103.054 18.408H106.174V18.696C106.174 20.928 104.902 22.344 102.694 22.344ZM111.319 24H113.647V6.84H111.319V24ZM116.85 24H119.178V6.84H116.85V24ZM130.901 20.064C130.565 21.432 129.413 22.2 127.637 22.2C125.525 22.2 124.037 20.64 123.845 18.36H133.085C133.109 18.144 133.133 17.76 133.133 17.448C133.133 14.376 131.141 11.712 127.397 11.712C123.677 11.712 121.565 14.496 121.565 17.88C121.565 21.24 123.893 24.192 127.637 24.192C130.613 24.192 132.797 22.56 133.229 20.064H130.901ZM127.397 13.584C129.389 13.584 130.637 14.808 130.781 16.656H123.917C124.277 14.64 125.501 13.584 127.397 13.584ZM136.732 8.112V11.904H134.26V13.92H136.732V20.04C136.732 22.512 138.292 24 140.74 24H142.636V21.984H140.932C139.756 21.984 139.06 21.264 139.06 19.968V13.92H142.636V11.904H139.06V8.112H136.732Z" fill="black"/>
<path d="M6.31704 17.7344C6.46497 17.6836 7.00619 17.6843 6.25578 16.8944C7.27305 18.0202 9.38025 15.536 6.59693 14.7484C5.84718 14.5363 3.768 14.6129 4.06484 15.9589C4.12414 16.0994 4.76539 16.6901 4.78559 16.6321C3.95471 16.509 4.50896 17.7276 5.35712 17.8361C5.52102 17.8576 6.16064 17.7882 6.31704 17.7344ZM6.36428 19.3021C4.87259 18.2571 3.37276 19.637 4.91789 20.2092C6.01336 20.6142 6.14499 20.419 7.13815 20.5764C7.80254 20.6823 11.6292 20.8869 11.6944 19.6973C11.536 19.7116 11.6771 20.0121 11.6944 19.6973C10.5155 19.8042 9.29749 20.0547 8.78364 20.1535C8.40208 20.2268 8.00586 19.8309 7.53177 19.6673L6.36428 19.3021ZM13.087 11.5976C14.1241 11.538 14.9932 12.8618 14.9932 12.8618C14.9932 12.8618 14.1241 14.2542 13.1759 14.2248C12.2278 14.1952 12.2708 13.8602 11.6054 13.7015C10.944 13.5432 12.0498 11.6569 13.087 11.5976ZM12.7921 12.261C12.9329 12.0776 13.319 12.812 13.3763 12.319C13.3962 12.1509 13.3369 12.072 12.695 12.0815C12.0531 12.0916 11.7667 13.4803 12.1717 13.7113C12.4839 13.8895 12.7107 14.1942 12.6119 13.8006C12.5285 13.4718 12.5852 12.5298 12.7921 12.261ZM6.41772 10.4461C7.20788 10.4461 7.46432 10.9596 7.4842 11.246C7.50407 11.5328 6.99022 12.6585 6.4767 12.6585C6.23558 12.6585 5.59335 12.3223 5.52851 11.8042C5.45585 11.22 5.99837 10.4461 6.41772 10.4461ZM6.30857 10.7928C6.4565 10.5813 5.74161 10.9436 5.79179 11.5956C5.84197 12.2473 6.50766 12.5396 6.36168 12.3408C5.82307 11.6074 6.22091 10.6614 6.07559 10.9325C6.22124 11.0424 6.52753 10.8052 6.18214 10.7481C6.15999 10.7442 6.29554 10.8117 6.30857 10.7928ZM7.14435 10.9733C7.06517 10.9733 7.0013 11.0417 7.0013 11.1264C7.0013 11.2111 7.06549 11.2796 7.14435 11.2796C7.2232 11.2796 7.28739 11.2111 7.28739 11.1264C7.28739 11.0417 7.22353 10.9733 7.14435 10.9733ZM8.62724 1.62919C9.05311 1.62919 9.65363 2.17466 10.4122 3.25025C10.9645 4.03325 11.4718 4.92767 11.5432 5.24373C11.5826 5.41936 11.9143 5.79179 12.073 5.83871C12.0749 5.83871 12.0873 5.84034 12.1137 5.84034C12.1619 5.84034 12.2294 5.83545 12.3076 5.83024C12.4298 5.82177 12.5816 5.81069 12.7589 5.81069C13.3868 5.81069 13.9801 5.96286 14.5536 6.10982C15.0981 6.24928 15.6126 6.38124 16.129 6.38124C16.129 6.38124 16.129 6.38124 16.1294 6.38124C16.1795 6.38124 16.2297 6.37961 16.2786 6.37733C16.3539 6.37309 16.5836 6.26329 16.7018 6.17433C17.0772 5.89281 17.6458 5.27534 18.2476 4.62171C19.5184 3.24178 20.3288 2.4034 20.8635 2.4034C21.0186 2.4034 21.1518 2.47247 21.2388 2.59792C21.5223 3.00587 21.637 3.30533 21.6934 3.78464C21.6996 3.8371 21.7071 3.89541 21.7155 3.95993C21.8162 4.73803 22.0251 6.35028 21.302 8.49691C21.3376 8.7755 21.4513 9.40275 21.6465 9.65495C23.0085 11.4125 23.8886 14.1346 23.8886 16.5908C23.8886 19.4715 22.7299 22.1795 20.6259 24.2157C18.5243 26.2499 15.7302 27.3705 12.7589 27.3705C9.78722 27.3705 6.99348 26.2502 4.8915 24.2157C2.78755 22.1795 1.62887 19.4712 1.62887 16.5908C1.62887 14.5683 2.17498 12.6207 3.20756 10.9593C3.33855 10.7488 3.42717 10.5116 3.52102 10.2607C3.65852 9.89314 3.80091 9.51353 4.0883 9.20366C4.39719 8.87065 4.83773 8.63832 5.26393 8.41316C5.53046 8.2724 5.78201 8.13979 5.99087 7.98958C6.5536 7.58521 7.16259 7.23071 7.80124 6.93615C7.94102 6.77127 7.8928 5.75824 7.86086 5.0857C7.79602 3.71848 7.72857 2.30466 8.27957 1.76898C8.37439 1.67775 8.49462 1.62919 8.62724 1.62919ZM8.62724 0C8.0694 0 7.54285 0.213427 7.14402 0.601501C6.06712 1.64842 6.15217 3.43436 6.23395 5.16195C6.2421 5.33269 6.25578 5.62138 6.26295 5.89183C5.83904 6.12741 5.43011 6.38677 5.0404 6.66699C4.92343 6.75106 4.72108 6.85795 4.50668 6.97101C4.00652 7.23527 3.39068 7.56013 2.89377 8.09613C2.38807 8.64191 2.16129 9.24732 1.99576 9.68981C1.93255 9.85827 1.86934 10.027 1.82502 10.0984C0.630823 12.0195 0 14.2643 0 16.5911C0 19.9172 1.33496 23.0411 3.75855 25.3868C6.16618 27.7165 9.36233 29 12.7592 29C16.1557 29 19.3519 27.7168 21.7595 25.3868C24.1831 23.0411 25.5181 19.9172 25.5181 16.5911C25.5181 13.8016 24.5614 10.8165 23.015 8.76279C23.0026 8.72271 22.9889 8.66992 22.9756 8.60997C23.6621 6.30531 23.4327 4.53275 23.3314 3.75138C23.3232 3.6885 23.317 3.64126 23.3121 3.5989C23.2242 2.85176 23.0114 2.29391 22.5771 1.66895C22.1887 1.10916 21.5477 0.774862 20.8635 0.774862C19.5761 0.774862 18.5709 1.86641 17.0492 3.51874C16.6549 3.94656 16.1808 4.46173 15.884 4.7351C15.6194 4.70122 15.3082 4.62139 14.9619 4.53309C14.3457 4.37538 13.6566 4.19845 12.8703 4.18281C12.4998 3.40112 11.8928 2.52362 11.7432 2.3115C10.9378 1.16846 9.93711 0 8.62724 0Z" fill="black"/>
</svg>
